# AST/ASF file generated using VICON BodyLanguage
# -----------------------------------------------
:version 1.10
:name VICON
:units
  mass 1.0
  length 0.45
  angle deg
:documentation
   .ast/.asf automatically generated from VICON data using
   VICON BodyBuilder and BodyLanguage model FoxedUp or BRILLIANT.MOD
:root
   order TX TY TZ RX RY RZ
   axis XYZ
   position 0 0 0  
   orientation 0 0 0 
:bonedata
  begin
     id 1 
     name lhipjoint
     direction 0.722297 -0.617336 0.311742 
     length 2.6635 
     axis 0 0 0  XYZ
  end
  begin
     id 2 
     name lfemur
     direction 0.34202 -0.939693 0  
     length 7.39349  
     axis 0 0 20  XYZ
    dof rx ry rz
    limits (-160.0 20.0)
           (-70.0 70.0)
           (-60.0 70.0)
  end
  begin
     id 3 
     name ltibia
     direction 0.34202 -0.939693 0   
     length 7.36294   
     axis 0 0 20   XYZ
    dof rx
    limits (-10.0 170.0)
  end
  begin
     id 4 
     name lfoot
     direction 0.104879 -0.288152 0.951824   
     length 2.16981   
     axis -90 7.62852e-016 20   XYZ
    dof rx rz
    limits (-45.0 90.0)
           (-70.0 20.0)
  end
  begin
     id 5 
     name ltoes
     direction 1.53586e-011 -4.21895e-011 1   
     length 1.08218   
     axis -90 7.62852e-016 20   XYZ
    dof rx
    limits (-90.0 20.0)
  end
  begin
     id 6 
     name rhipjoint
     direction -0.75102 -0.589393 0.297631   
     length 2.78977  
     axis 0 0 0  XYZ 
  end
  begin
     id 7 
     name rfemur
     direction -0.34202 -0.939693 0   
     length 7.46076   
     axis 0 0 -20   XYZ
    dof rx ry rz
    limits (-160.0 20.0)
           (-70.0 70.0)
           (-70.0 60.0)
  end
  begin
     id 8 
     name rtibia
     direction -0.34202 -0.939693 0   
     length 7.31726   
     axis 0 0 -20   XYZ
    dof rx
    limits (-10.0 170.0)
 end
 begin
     id 9 
     name rfoot
     direction -0.107991 -0.296704 0.948844   
     length 2.09388  
     axis -90 -7.62852e-016 -20   XYZ
    dof rx rz
    limits (-45.0 90.0)
           (-20.0 70.0)
  end
  begin
     id 10 
     name rtoes
     direction -1.53559e-011 -4.21911e-011 1   
     length 1.04433   
     axis -90 -7.62852e-016 -20   XYZ
    dof rx
    limits (-90.0 20.0)
  end
  begin
     id 11 
     name lowerback
     direction 0.0165164 0.98272 0.184358   
     length 1.71896   
     axis 0 0 0   XYZ
    dof rx ry rz
    limits (-20.0 45.0)
           (-30.0 30.0)
           (-30.0 30.0)
  end
  begin
     id 12 
     name upperback
     direction -0.00887249 0.992297 0.123566   
     length 1.71504   
     axis 0 0 0   XYZ
    dof rx ry rz
    limits (-20.0 45.0)
           (-30.0 30.0)
           (-30.0 30.0)
  end
  begin
     id 13 
     name thorax
     direction -0.0157026 0.998908 0.0440032   
     length 1.77022   
     axis 0 0 0   XYZ
    dof rx ry rz
    limits (-20.0 45.0)
           (-30.0 30.0)
           (-30.0 30.0)
  end
  begin
     id 14 
     name lowerneck
     direction -0.0238856 0.998137 0.0561411   
     length 1.89341   
     axis 0 0 0   XYZ
    dof rx ry rz
    limits (-20.0 45.0)
           (-30.0 30.0)
           (-30.0 30.0)
  end
  begin
     id 15 
     name upperneck
     direction 0.0276574 0.952253 -0.304056   
     length 1.86999   
     axis 0 0 0   XYZ
    dof rx ry rz
    limits (-20.0 45.0)
           (-30.0 30.0)
           (-30.0 30.0)
  end
  begin
     id 16
     name head
     direction 0.00800083 0.994258 -0.106712  
     length 1.91492  
     axis 0 0 0   XYZ
    dof rx ry rz
    limits (-20.0 45.0)
           (-30.0 30.0)
           (-30.0 30.0)
  end
  begin
     id 17 
     name lclavicle
     direction 0.97203 0.225407 0.06595  
     length 3.34889  
     axis 0 0 0   XYZ
    dof ry rz
    limits (-20.0 10.0)
           (0.0 20.0)
  end
  begin
     id 18 
     name lhumerus
     direction 1 -4.48973e-011 2.20267e-027   
     length 4.85645   
     axis 180 -30 -90   XYZ
    dof rx ry rz
    limits (-60.0 90.0)
           (-90.0 90.0)
           (-90.0 90.0)
  end
  begin
     id 19
     name lradius
     direction 1 -4.4897e-011 4.60472e-027   
     length 2.79874   
     axis 180 -30 -90   XYZ
    dof rx
    limits (-10.0 170.0)
  end
  begin
     id 20
     name lwrist
     direction 1 -4.48952e-011 1.14928e-026   
     length 1.39937   
     axis -6.29373e-015 90 90   XYZ
    dof ry
    limits (-180.0 0.0)
 end
  begin
     id 21 
     name lhand
     direction 1 -4.48967e-011 2.29886e-026   
     length 0.573398   
     axis -1.46689e-014 90 90   XYZ
    dof rx rz
    limits (-90.0 90.0)
           (-45.0 45.0)
  end
  begin
     id 22 
     name lfingers
     direction 1 -4.48955e-011 4.59726e-026   
     length 0.462289   
     axis -2.93383e-014 90 90   XYZ
    dof rx
    limits (0.0 90.0)
  end
  begin
     id 23
     name lthumb
     direction 0.707107 -6.34866e-011 0.707107   
     length 0.663757   
     axis -90 45 5.69224e-014   XYZ
    dof rx rz
    limits (-45.0 45.0)
           (-45.0 45.0)
  end
  begin
     id 24 
     name rclavicle
     direction -0.981571 0.157346 0.108443   
     length 3.35257  
     axis 0 0 0   XYZ 
    dof ry rz
    limits (-10.0 20.0)
           (-20.0 0.0)
  end
  begin
     id 25 
     name rhumerus
     direction -1 -4.48967e-011 8.58308e-029  
     length 4.67018   
     axis 180 30 90   XYZ
    dof rx ry rz
    limits (-90.0 60.0)
           (-90.0 90.0)
           (-90.0 90.0)
  end
  begin
     id 26 
     name rradius
     direction -1 -4.48958e-011 4.52548e-027   
     length 2.65534   
     axis 180 30 90   XYZ
    dof rx
    limits (-10.0 170.0)
  end
  begin
     id 27 
     name rwrist
     direction -1 -4.48977e-011 1.14952e-026   
     length 1.32767   
     axis -6.29373e-015 -90 -90   XYZ
    dof ry
    limits (-180.0 0.0)
  end
  begin
     id 28
     name rhand
     direction -1 -4.48924e-011 2.29804e-026   
     length 0.594069   
     axis -1.46689e-014 -90 -90   XYZ
    dof rx rz
    limits (-90.0 90.0)
           (-45.0 45.0)
  end
  begin
     id 29
     name rfingers
     direction -1 -4.48998e-011 4.59888e-026   
     length 0.478954   
     axis -2.93383e-014 -90 -90   XYZ
    dof rx
    limits (0.0 90.0)
  end
  begin
     id 30
     name rthumb
     direction -0.707107 -6.34933e-011 0.707107   
     length 0.687685   
     axis -90 -45 -5.69224e-014   XYZ
    dof rx rz
    limits (-45.0 45.0)
           (-45.0 45.0)
  end
:hierarchy
  begin
    root lhipjoint rhipjoint lowerback
    lhipjoint lfemur
    lfemur ltibia
    ltibia lfoot
    lfoot ltoes
    rhipjoint rfemur
    rfemur rtibia
    rtibia rfoot
    rfoot rtoes
    lowerback upperback
    upperback thorax
    thorax lowerneck lclavicle rclavicle
    lowerneck upperneck
    upperneck head
    lclavicle lhumerus
    lhumerus lradius
    lradius lwrist
    lwrist lhand lthumb
    lhand lfingers
    rclavicle rhumerus
    rhumerus rradius
    rradius rwrist
    rwrist rhand rthumb
    rhand rfingers
  end

#!OML:ASF E:\pregnant2\Project 1\Capture day 1\Session 1\pregnant2.ASF
:FULLY-SPECIFIED
:DEGREES
192
root 7.70304 10.4893 15.709 12.3936 0.934827 4.40315
lowerback 6.89144 -1.4367 -4.53391
upperback -11.9228 -2.93036 -1.62446
thorax -17.2307 -0.924101 1.30293
lowerneck -13.374 -6.28164 -9.01685
upperneck 26.8371 -8.80571 6.99061
head 11.6991 -4.09994 2.84359
rclavicle 1.8487e-014 8.74653e-015
rhumerus -28.8797 37.3772 -104.92
rradius 54.6379
rwrist 28.1674
rhand -8.955 -1.42046
rfingers 7.12502
rthumb 16.9898 -30.6974
lclavicle 1.8487e-014 8.74653e-015
lhumerus -29.2015 -36.009 102.337
lradius 55.4626
lwrist -23.6483
lhand -4.9189 15.8961
lfingers 7.12502
lthumb 20.8713 44.7934
rfemur -98.3534 -8.83491 13.5736
rtibia 73.5634
rfoot 14.1442 -4.61908
rtoes 4.99208
lfemur -94.9263 0.292032 -19.5738
ltibia 66.0562
lfoot 14.7792 -5.0995
ltoes -18.3831
193
root 7.70324 10.4871 15.7084 12.3725 0.950117 4.39885
lowerback 6.89387 -1.43886 -4.52495
upperback -11.9303 -2.93239 -1.6238
thorax -17.2423 -0.925746 1.29923
lowerneck -13.3944 -6.25414 -8.98798
upperneck 26.9193 -8.76845 6.95944
head 11.7283 -4.08315 2.8334
rclavicle -1.11319e-014 -1.13307e-014
rhumerus -28.8832 37.3704 -104.927
rradius 54.5977
rwrist 28.1435
rhand -8.94477 -1.42299
rfingers 7.12502
rthumb 16.9996 -30.6991
lclavicle -1.11319e-014 -1.13307e-014
lhumerus -29.202 -36.0424 102.355
lradius 55.4119
lwrist -23.6406
lhand -4.92044 15.904
lfingers 7.12502
lthumb 20.8699 44.8015
rfemur -98.3462 -8.84675 13.5763
rtibia 73.5856
rfoot 14.138 -4.62186
rtoes 5.00449
lfemur -94.921 0.280381 -19.569
ltibia 66.0683
lfoot 14.7827 -5.10462
ltoes -18.3816
194
root 7.70341 10.4849 15.7076 12.3494 0.964798 4.39529
lowerback 6.89667 -1.43987 -4.51441
upperback -11.9371 -2.93295 -1.62573
thorax -17.2534 -0.927178 1.29142
lowerneck -13.4122 -6.22794 -8.95992
upperneck 26.9965 -8.73408 6.93297
head 11.7556 -4.06729 2.82466
rclavicle -2.83268e-015 2.16675e-014
rhumerus -28.8867 37.3461 -104.934
rradius 54.564
rwrist 28.126
rhand -8.92359 -1.42475
rfingers 7.12502
rthumb 17.02 -30.6991
lclavicle -2.83268e-015 2.16675e-014
lhumerus -29.2014 -36.0817 102.372
lradius 55.3599
lwrist -23.6273
lhand -4.92385 15.9148
lfingers 7.12502
lthumb 20.8666 44.8127
rfemur -98.3371 -8.85786 13.5783
rtibia 73.608
rfoot 14.1322 -4.62581
rtoes 5.01874
lfemur -94.9135 0.269355 -19.5653
ltibia 66.0808
lfoot 14.7872 -5.11106
ltoes -18.3828
195
root 7.70358 10.4826 15.7068 12.3248 0.980266 4.39314
lowerback 6.89754 -1.44037 -4.50422
upperback -11.9427 -2.93283 -1.62893
thorax -17.2618 -0.928457 1.28214
lowerneck -13.4238 -6.20315 -8.93412
upperneck 27.0651 -8.70208 6.91005
head 11.7789 -4.0525 2.81732
rclavicle 1.66482e-014 3.37934e-015
rhumerus -28.8905 37.3096 -104.937
rradius 54.5381
rwrist 28.1146
rhand -8.8965 -1.42615
rfingers 7.12502
rthumb 17.0461 -30.6983
lclavicle 1.66482e-014 3.37934e-015
lhumerus -29.1995 -36.1217 102.387
lradius 55.3093
lwrist -23.6141
lhand -4.92393 15.9242
lfingers 7.12502
lthumb 20.8665 44.822
rfemur -98.3273 -8.86983 13.578
rtibia 73.6313
rfoot 14.1262 -4.62948
rtoes 5.03245
lfemur -94.9049 0.256841 -19.5627
ltibia 66.0935
lfoot 14.7916 -5.11829
ltoes -18.3822
196
root 7.70368 10.4802 15.7059 12.2964 0.995971 4.39336
lowerback 6.9028 -1.44003 -4.4972
upperback -11.9469 -2.9324 -1.63311
thorax -17.2713 -0.929238 1.27357
lowerneck -13.4305 -6.17991 -8.90805
upperneck 27.126 -8.67211 6.8868
head 11.7984 -4.03877 2.80952
rclavicle -4.0403e-014 -7.95139e-015
rhumerus -28.8946 37.2819 -104.941
rradius 54.5157
rwrist 28.0896
rhand -8.87725 -1.4383
rfingers 7.12502
rthumb 17.0646 -30.7088
lclavicle -4.0403e-014 -7.95139e-015
lhumerus -29.1962 -36.1602 102.402
lradius 55.2591
lwrist -23.6025
lhand -4.92986 15.9307
lfingers 7.12502
lthumb 20.8608 44.8292
rfemur -98.3144 -8.88217 13.5748
rtibia 73.6548
rfoot 14.1219 -4.63194
rtoes 5.03912
lfemur -94.8918 0.243376 -19.5623
ltibia 66.1056
lfoot 14.7966 -5.12628
ltoes -18.3866
197
root 7.70374 10.4777 15.7048 12.2642 1.0109 4.39411
lowerback 6.91364 -1.43876 -4.49084
upperback -11.9502 -2.93122 -1.63795
thorax -17.2836 -0.929571 1.26463
lowerneck -13.4353 -6.15824 -8.88212
upperneck 27.1825 -8.6443 6.86392
head 11.8161 -4.02606 2.80153
rclavicle -1.33683e-014 -1.35174e-014
rhumerus -28.9007 37.2742 -104.948
rradius 54.4965
rwrist 28.0455
rhand -8.86923 -1.46214
rfingers 7.12502
rthumb 17.0723 -30.732
lclavicle -1.33683e-014 -1.35174e-014
lhumerus -29.1944 -36.1972 102.418
lradius 55.21
lwrist -23.5934
lhand -4.94207 15.9382
lfingers 7.12502
lthumb 20.8491 44.8379
rfemur -98.2983 -8.89317 13.5703
rtibia 73.6784
rfoot 14.118 -4.63389
rtoes 5.04787
lfemur -94.8752 0.230622 -19.5624
ltibia 66.1175
lfoot 14.8022 -5.13025
ltoes -18.3804
198
root 7.70373 10.4751 15.7035 12.2252 1.02579 4.39676
lowerback 6.9338 -1.4379 -4.49008
upperback -11.9512 -2.93178 -1.6412
thorax -17.2986 -0.929748 1.26127
lowerneck -13.4354 -6.13612 -8.85905
upperneck 27.2308 -8.61561 6.84357
head 11.8299 -4.01309 2.79513
rclavicle -7.50412e-015 -3.20043e-014
rhumerus -28.9073 37.2774 -104.955
rradius 54.4797
rwrist 27.9927
rhand -8.86552 -1.48881
rfingers 7.12502
rthumb 17.0759 -30.7584
lclavicle -7.50412e-015 -3.20043e-014
lhumerus -29.1899 -36.2281 102.433
lradius 55.1631
lwrist -23.5836
lhand -4.95704 15.9446
lfingers 7.12502
lthumb 20.8347 44.8459
rfemur -98.2754 -8.90363 13.5632
rtibia 73.7011
rfoot 14.1156 -4.6338
rtoes 5.04036
lfemur -94.8519 0.217705 -19.5648
ltibia 66.1294
lfoot 14.8087 -5.13135
ltoes -18.3788
199
root 7.70366 10.4724 15.7021 12.1818 1.03987 4.4004
lowerback 6.96066 -1.43632 -4.49185
upperback -11.9516 -2.93218 -1.64453
thorax -17.3173 -0.929415 1.2594
lowerneck -13.4302 -6.1144 -8.83644
upperneck 27.2728 -8.58759 6.8241
head 11.8403 -4.00052 2.78909
rclavicle -3.8266e-015 -2.22639e-014
rhumerus -28.919 37.2978 -104.966
rradius 54.4658
rwrist 27.9267
rhand -8.86896 -1.52434
rfingers 7.12502
rthumb 17.0726 -30.7942
lclavicle -3.8266e-015 -2.22639e-014
lhumerus -29.189 -36.2537 102.449
lradius 55.1193
lwrist -23.5772
lhand -4.9689 15.9464
lfingers 7.12502
lthumb 20.8233 44.849
rfemur -98.249 -8.9129 13.5539
rtibia 73.7236
rfoot 14.1148 -4.63133
rtoes 5.02877
lfemur -94.8248 0.205991 -19.5689
ltibia 66.1422
lfoot 14.8136 -5.13212
ltoes -18.3741
200
root 7.70356 10.4694 15.7005 12.1314 1.0529 4.40263
lowerback 6.99602 -1.43443 -4.49466
upperback -11.949 -2.93256 -1.64661
thorax -17.3379 -0.928774 1.2598
lowerneck -13.4279 -6.09267 -8.81248
upperneck 27.3132 -8.5592 6.80356
head 11.8505 -3.9877 2.78238
rclavicle 1.60519e-014 2.18663e-015
rhumerus -28.9288 37.3136 -104.975
rradius 54.4541
rwrist 27.8667
rhand -8.86469 -1.55664
rfingers 7.12502
rthumb 17.0767 -30.8261
lclavicle 1.60519e-014 2.18663e-015
lhumerus -29.1844 -36.2743 102.462
lradius 55.0764
lwrist -23.5745
lhand -4.97972 15.9471
lfingers 7.12502
lthumb 20.8129 44.8508
rfemur -98.2151 -8.91923 13.5473
rtibia 73.7446
rfoot 14.1157 -4.62309
rtoes 4.97732
lfemur -94.7919 0.196339 -19.5722
ltibia 66.1563
lfoot 14.8173 -5.13335
ltoes -18.3698
201
root 7.70345 10.4664 15.6987 12.0758 1.06459 4.40426
lowerback 7.03779 -1.43191 -4.49884
upperback -11.9442 -2.93256 -1.64832
thorax -17.3598 -0.927704 1.26149
lowerneck -13.4274 -6.07076 -8.7855
upperneck 27.351 -8.53056 6.78172
head 11.8598 -3.97456 2.77463
rclavicle 7.65321e-015 4.96962e-015
rhumerus -28.9383 37.3246 -104.983
rradius 54.4448
rwrist 27.8147
rhand -8.85844 -1.58825
rfingers 7.12502
rthumb 17.0827 -30.8572
lclavicle 7.65321e-015 4.96962e-015
lhumerus -29.1791 -36.2908 102.473
lradius 55.0373
lwrist -23.5768
lhand -4.98325 15.9447
lfingers 7.12502
lthumb 20.8095 44.8488
rfemur -98.1767 -8.92344 13.5401
rtibia 73.7654
rfoot 14.1173 -4.61468
rtoes 4.92965
lfemur -94.7546 0.18864 -19.576
ltibia 66.1715
lfoot 14.8187 -5.13835
ltoes -18.3704
